<svg width="297" height="107" viewBox="0 0 297 107" fill="none" xmlns="http://www.w3.org/2000/svg">
<g filter="url(#filter0_dii_22_46)">
<path d="M261.212 30.1096C263.953 28.7897 266.288 24.5254 270.756 24.83C274.512 25.1346 276.34 28.6882 274.918 33.5617C272.989 40.2628 265.273 45.1363 264.968 47.8776C264.765 49.5022 265.882 50.619 265.882 52.7512C265.882 54.9849 263.953 59.9599 268.623 59.9599C271.669 59.9599 275.02 57.9293 276.543 53.0558C277.964 48.4868 277.051 44.9332 278.066 41.4812C278.878 38.6383 280.909 37.0138 281.823 35.1862C282.838 33.054 283.142 30.0081 285.782 28.7897C288.625 27.4698 292.585 28.3836 292.686 31.4295C292.788 34.577 289.64 37.623 289.64 40.0597C289.64 41.9888 290.757 43.1057 290.047 45.644C288.93 49.4006 283.549 53.7665 282.736 60.9752C282.127 66.3564 283.853 67.3717 283.041 71.2299C282.127 75.7989 277.964 77.931 276.34 80.2662C274.918 82.3984 276.441 84.1244 274.512 86.3581C272.685 88.4903 270.654 88.0842 267.71 90.3179C264.765 92.5516 263.953 95.6991 260.805 96.0036C257.658 96.3082 256.846 93.77 254.511 92.7546C252.48 91.8409 247.403 92.8562 246.286 89.7087C245.17 86.8658 247.505 85.0382 247.911 82.8045C248.419 80.0632 247.2 78.3371 249.231 74.8851C251.465 71.1284 258.064 70.1131 258.47 74.8851C258.775 79.0479 255.12 79.8601 254.917 83.1091C254.714 85.749 257.556 87.5765 260.399 85.7489C263.547 83.7183 263.648 80.3678 266.796 78.7433C269.537 77.3218 273.192 75.9004 274.918 71.6361C276.34 68.0824 274.918 64.2242 270.857 66.8641C266.491 69.707 262.43 70.5192 260.095 68.0825C257.049 64.935 258.673 61.7875 257.963 59.5538C257.252 57.3201 255.018 55.8987 254.917 52.7512C254.714 47.2685 258.775 45.644 262.024 42.3949C266.39 37.9276 264.664 34.1709 260.501 38.3337C258.47 40.3643 256.541 42.2934 253.8 42.3949C249.231 42.598 245.474 36.1 252.581 32.3433C256.44 30.3127 256.744 32.2418 261.212 30.1096Z" fill="#00243D"/>
<path d="M214.998 31.9794C213.475 32.7917 212.358 34.3147 210.429 34.3147C206.571 34.3147 205.048 29.8473 207.687 27.512C209.312 26.0906 212.256 25.6845 214.49 23.7554C216.724 21.8263 216.318 18.5773 218.653 16.242C221.597 13.2976 225.354 14.516 225.659 17.2573C225.963 20.2018 223.12 22.3339 225.049 23.4508C227.486 24.8722 230.532 15.2267 235.812 15.2267C239.264 15.2267 239.771 18.3742 242.208 20.2018C244.239 21.7247 246.98 20.5064 248.909 22.537C253.377 27.2074 242.919 34.9238 242.919 39.2897C242.919 42.0311 243.934 43.554 244.036 45.8893C244.137 48.2245 243.122 50.0521 243.934 51.575C244.848 53.3011 249.011 52.2858 249.214 56.4486C249.417 61.4236 242.513 60.8144 239.264 61.8297C235.203 63.0481 234.187 65.7895 230.329 65.7895C226.775 65.7895 225.963 61.119 229.111 57.9715C232.969 54.1133 235.304 55.1286 236.015 51.0674C236.726 47.0061 234.695 43.4525 234.898 39.7974C235.101 36.1422 238.858 32.4871 237.842 28.5274C236.827 24.5676 231.547 24.5676 227.892 29.8473C225.354 33.5024 226.166 36.5484 224.643 40.102C222.41 45.1785 219.973 47.8184 220.277 51.4735C220.582 54.9256 222.816 55.5348 224.237 57.1593C225.963 59.0884 225.76 61.7282 223.831 63.0481C221.597 64.5711 219.059 64.165 216.521 65.4849C213.881 66.8048 211.85 69.7492 208.601 69.7492C203.525 69.7492 205.149 63.6573 208.601 61.4236C210.936 59.9006 213.069 57.9715 213.272 55.2302C213.475 52.5904 211.952 49.1383 213.272 45.077C213.982 42.9448 217.13 38.2744 218.145 35.0254C219.161 31.6748 217.231 30.7611 214.998 31.9794Z" fill="#00243D"/>
<path d="M186.981 39.781C187.21 36.8176 189.714 36.1595 191.721 34.0053C193.252 32.3881 193.064 29.2462 196.427 29.3505C199.79 29.4547 199.698 33.0201 200.725 34.8913C201.752 36.7625 203.756 37.965 203.76 41.423C203.745 44.577 200.312 46.7146 197.152 46.5983C193.587 46.5062 192.917 50.6147 194.862 52.5327C196.163 53.879 198.422 52.5235 199.676 54.7879C201.163 57.547 197.589 60.7103 197.251 63.5784C196.754 67.1681 198.162 68.6096 198.105 71.0541C198.043 75.1263 192.729 79.8175 194.855 83.047C196.64 85.6866 203.524 83.4444 203.797 88.0052C204.002 91.4511 200.433 92.9867 196.658 92.8054C193.29 92.5998 190.057 91.2672 187.357 92.0388C184.263 93.0374 184.105 95.488 180.379 96.1174C177.052 96.6213 174.903 92.9864 176.778 90.3315C180.244 85.344 184.824 87.1045 186.335 83.4543C188.12 79.2792 186.041 75.1314 186.533 71.4404C187.101 67.3379 189.956 65.7434 191.414 62.91C192.598 60.6016 191.934 57.9967 189.925 58.4219C186.915 59.1103 185.588 62.4444 181.94 62.6624C177.987 62.8986 176.391 58.3151 178.786 55.8327C182.133 52.2762 188.787 52.9974 189.784 47.5471C190.478 43.844 186.674 43.1559 186.981 39.781Z" fill="#00243D"/>
<path d="M143.582 27.9812C143.382 24.0825 147.379 23.2617 150.677 23.4669C154.773 23.7747 156.472 18.2345 161.468 17.9267C164.466 17.8241 165.365 19.4656 165.265 21.5176C165.265 24.8007 161.168 27.6734 161.868 31.4695C162.367 34.2397 162.467 37.9332 161.168 42.2423C159.869 46.4488 153.674 51.6812 152.375 56.8111C151.376 59.9916 153.574 61.941 155.673 61.941C158.67 61.941 162.567 55.4773 166.065 55.4773C170.161 55.4773 169.662 61.2228 171.66 63.3773C173.659 65.5319 177.256 66.0448 178.055 69.4306C178.955 73.1241 177.256 79.8955 174.858 82.05C172.859 83.7942 170.961 83.076 169.062 84.615C166.664 86.5643 165.065 91.489 161.968 91.489C156.972 91.489 155.673 83.6916 150.277 83.2812C146.18 82.9734 143.782 86.2761 137.687 87.3021C132.591 88.1228 130.023 90.8735 131.122 86.3592C132.521 80.7163 141.071 80.5333 143.682 75.2786C147.979 67.6864 143.282 60.5046 145.78 49.3215C146.979 41.7293 157.671 30.8539 155.473 28.1864C154.174 26.6475 151.576 32.7007 147.879 32.9059C145.381 33.0085 143.782 30.9565 143.582 27.9812ZM162.467 64.8137C158.67 64.8137 154.374 69.4306 154.574 73.637C154.773 77.7409 158.471 80.7163 161.968 80.7163C165.065 80.7163 169.262 78.5617 169.262 75.689C169.262 71.9955 165.065 73.2267 164.466 70.9695C163.966 69.2254 164.566 67.5838 164.566 66.4552C164.566 65.4293 163.567 64.8137 162.467 64.8137Z" fill="#00243D"/>
<path d="M108.606 42.5113C111.57 39.4624 111.695 33.9231 116.672 34.7958C120.129 35.3814 120.16 40.6785 117.337 46.7119C116.003 49.6075 118.181 54.7406 117.155 58.0879C115.809 62.338 112.877 66.0036 113.184 69.2635C113.611 73.5367 117.366 74.0563 119.78 69.4654C121.908 65.4579 120.952 61.614 122.87 58.069C124.061 55.9332 125.658 55.1631 126.42 51.5624C127.093 48.5013 125.608 45.0865 126.425 41.2656C127.496 36.2444 134.468 34.3871 135.092 42.3606C135.398 46.5566 133.303 51.1807 132.982 54.8918C132.66 58.6029 134.904 63.0973 134.649 66.1697C134.581 69.6166 133.159 74.8143 132.949 77.1489C132.682 80.6397 135.979 80.9862 137.687 80.1948C141.071 78.6264 142.763 78.7173 144.456 75.3329C147.925 74.564 161.416 82.6264 159.685 85.6098C157.878 88.7144 153.593 80.5333 146.486 83.9176C139.379 87.302 137.687 94.0708 130.918 92.3786C124.149 90.6864 124.794 85.4437 125.841 82.2255C127.534 77.0251 130.197 72.3564 126.497 71.6165C124.218 71.1858 123.147 76.207 120.524 79.3882C116.909 83.7252 111.766 85.3853 108.518 82.4652C103.972 78.377 108.842 75.0098 108.294 69.7234C107.768 64.5362 106.633 66.4517 105.842 62.8832C105.073 59.4138 109.811 54.5158 108.149 53.1163C106.509 51.8159 104.535 55.5811 102.718 56.2959C100.328 57.2417 98.2911 56.0292 97.6978 53.3528C96.4235 47.6035 105.543 45.5822 108.606 42.5113Z" fill="#00243D"/>
<path d="M99.2182 1.01157C103.483 1.31617 101.757 5.47896 102.264 7.30653C102.772 9.23563 104.599 10.5555 104.396 13.3984C104.092 17.4597 99.8274 19.1857 98.406 23.3485C97.5937 25.7853 98.2029 27.7144 97.3906 30.9634C96.3753 34.8216 90.4865 41.7257 89.4712 47.4115C88.9635 50.3559 90.1819 52.8942 90.4865 55.331C90.8926 58.4785 88.2528 62.6413 89.9788 64.875C91.5018 66.8041 94.5478 63.7581 97.9998 64.3673C103.076 65.2811 103.279 72.2868 98.1014 73.6067C94.9539 74.4189 92.7202 73.099 89.7758 73.8097C86.8314 74.5205 85.4099 75.9419 83.0747 76.348C80.7395 76.7542 79.318 76.0434 77.1858 76.348C75.0537 76.6526 72.82 79.2925 69.3679 78.6833C64.9005 77.871 65.9158 70.8653 69.6725 69.0378C72.82 67.5148 78.0996 68.7332 80.1303 65.9918C81.8563 63.6566 79.0134 59.4938 79.5211 56.7524C80.0287 54.0111 82.364 53.6049 83.0747 50.9651C84.2931 46.2947 82.7701 42.2334 83.5823 37.563C84.3946 32.994 91.0957 23.247 93.2278 19.5919C95.36 15.9367 92.9233 11.5709 90.385 14.8199C87.7451 18.1704 86.9329 20.9118 84.6992 21.724C82.364 22.5363 81.9578 21.0133 80.4349 21.6225C78.8104 22.2317 77.8966 23.6531 76.4751 23.1455C74.0384 22.2317 73.5307 16.2413 78.5058 13.1954C82.6686 10.6571 85.3084 11.0632 88.2528 9.1341C92.2125 6.49428 94.6493 0.70698 99.2182 1.01157Z" fill="#00243D"/>
<path d="M29.1952 29.0343C30.8197 29.4405 32.6473 28.3236 34.0687 28.6282C35.8963 29.0343 36.7085 31.4711 39.0438 31.4711C41.379 31.4711 43.105 27.1052 47.1663 27.1052C50.2122 27.1052 51.9383 29.4405 52.1413 32.1818C52.2429 35.4308 49.5015 37.563 47.2678 37.9691C44.7295 38.3753 41.379 36.5477 39.7545 38.8829C38.13 41.2181 39.6529 43.6549 38.5361 45.9901C37.2162 48.7315 32.7488 49.2391 33.9672 52.7927C35.084 56.1433 39.5514 53.9096 42.6989 54.6203C45.6433 55.0264 47.5724 56.854 50.1107 56.854C54.4766 56.854 57.421 51.2698 55.1873 47.5131C53.5628 44.8733 49.7046 45.4825 50.5168 41.8273C51.2275 38.5783 54.172 39.6952 56.6087 38.6798C59.6547 37.4615 58.8424 34.6186 61.8884 33.4002C63.6144 32.6895 66.0512 33.2987 66.7619 34.6186C67.3711 35.837 67.168 37.7661 67.9803 38.5783C68.8941 39.4921 70.7216 38.9844 71.7369 39.9998C73.2599 41.5227 72.1431 44.7717 69.1986 45.584C66.7619 46.1932 64.3251 45.4825 63.2083 47.5131C61.3807 50.7621 64.4267 58.377 62.7006 65.4842C61.1777 71.7792 53.6643 78.8864 56.2026 82.8461C58.1317 85.7905 61.9899 82.6431 64.4267 84.9783C67.4726 87.8212 65.1374 93.2023 61.5838 93.71C59.0455 94.1161 55.898 93.3039 54.375 93.6085C52.7505 94.0146 50.5168 95.8422 48.2831 95.7406C46.0494 95.5376 45.1356 93.3039 43.6127 92.8978C42.3943 92.4916 40.5667 94.3192 38.4346 93.3039C35.084 91.8824 34.9825 84.7752 39.4499 84.0645C42.5974 83.5568 46.8617 85.5875 48.1816 83.8614C49.5015 81.9323 47.9785 79.8002 48.4862 75.0282C48.7908 72.4899 52.9536 69.8501 53.7658 67.8194C54.4766 65.5857 52.8521 62.1337 50.923 62.7429C48.2831 63.4536 45.6433 67.0072 40.9729 66.398C37.4192 65.8903 35.7947 60.8137 32.6473 60.8137C29.9059 60.8137 26.7584 66.0934 26.2508 68.9363C25.7431 71.6776 26.6569 75.5358 26.2508 79.2925C25.8446 83.4553 20.9711 88.8365 23.0018 91.6794C24.3217 93.6085 26.6569 91.5778 28.9921 92.5932C32.5457 93.9131 32.2411 98.9896 28.4845 100.31C24.1186 101.833 18.9405 100.208 15.793 100.31C12.6455 100.411 10.3103 103.152 6.1475 102.34C1.17245 101.426 1.07092 94.4207 5.63984 92.187C8.78732 90.664 12.9501 91.4763 14.7777 89.1411C16.6053 86.7043 14.1685 80.4094 15.2853 75.7389C16.3007 70.9669 18.5344 69.2409 20.7681 64.7735C22.5956 60.7122 22.088 55.2295 24.5247 50.8636C26.6569 47.0054 30.5151 44.8733 30.312 41.0151C30.109 37.2584 24.2201 38.5783 21.1742 36.5477C17.8236 34.314 17.9252 27.5114 23.3063 26.5976C26.4538 26.0899 27.4691 28.6282 29.1952 29.0343Z" fill="#00243D"/>
<g filter="url(#filter1_di_22_46)">
<path d="M63.8062 10.2859C66.4493 13.538 65.6416 17.8879 63.0597 20.3248C60.4777 22.7617 56.532 21.8703 54.418 18.9673C52.0364 15.7681 52.5594 9.34669 54.4974 7.57979C57.0241 5.33642 61.3081 7.23068 63.8062 10.2859Z" fill="#00243D"/>
</g>
<g filter="url(#filter2_di_22_46)">
<path d="M238.905 76.5246C240.779 80.2334 238.914 84.2139 235.708 86.2699C232.503 88.3259 228.734 86.7988 227.308 83.527C225.685 79.9132 227.76 75.2518 230.151 73.7715C233.254 71.9026 237.128 73.038 238.905 76.5246Z" fill="#00243D"/>
</g>
<g filter="url(#filter3_di_22_46)">
<path d="M254.11 11.4576C253.364 7.9611 255.695 5.13009 258.71 4.20085C261.725 3.27161 264.454 5.42374 264.928 8.45402C265.491 11.8126 262.849 15.1539 260.611 15.8032C257.718 16.6031 254.823 14.748 254.11 11.4576Z" fill="#00243D"/>
</g>
</g>
<defs>
<filter id="filter0_dii_22_46" x="0.891035" y="0.0799999" width="295.218" height="106.33" filterUnits="userSpaceOnUse" color-interpolation-filters="sRGB">
<feFlood flood-opacity="0" result="BackgroundImageFix"/>
<feColorMatrix in="SourceAlpha" type="matrix" values="0 0 0 0 0 0 0 0 0 0 0 0 0 0 0 0 0 0 127 0" result="hardAlpha"/>
<feOffset dx="1" dy="1.5"/>
<feGaussianBlur stdDeviation="1.21"/>
<feComposite in2="hardAlpha" operator="out"/>
<feColorMatrix type="matrix" values="0 0 0 0 0.619608 0 0 0 0 0.796078 0 0 0 0 0.588235 0 0 0 1 0"/>
<feBlend mode="normal" in2="BackgroundImageFix" result="effect1_dropShadow_22_46"/>
<feBlend mode="normal" in="SourceGraphic" in2="effect1_dropShadow_22_46" result="shape"/>
<feColorMatrix in="SourceAlpha" type="matrix" values="0 0 0 0 0 0 0 0 0 0 0 0 0 0 0 0 0 0 127 0" result="hardAlpha"/>
<feOffset dx="1.62"/>
<feGaussianBlur stdDeviation="1.455"/>
<feComposite in2="hardAlpha" operator="arithmetic" k2="-1" k3="1"/>
<feColorMatrix type="matrix" values="0 0 0 0 0 0 0 0 0 0.0588235 0 0 0 0 0.0980392 0 0 0 1 0"/>
<feBlend mode="normal" in2="shape" result="effect2_innerShadow_22_46"/>
<feColorMatrix in="SourceAlpha" type="matrix" values="0 0 0 0 0 0 0 0 0 0 0 0 0 0 0 0 0 0 127 0" result="hardAlpha"/>
<feOffset dy="1"/>
<feGaussianBlur stdDeviation="1.2"/>
<feComposite in2="hardAlpha" operator="arithmetic" k2="-1" k3="1"/>
<feColorMatrix type="matrix" values="0 0 0 0 1 0 0 0 0 1 0 0 0 0 1 0 0 0 0.83 0"/>
<feBlend mode="screen" in2="effect2_innerShadow_22_46" result="effect3_innerShadow_22_46"/>
</filter>
<filter id="filter1_di_22_46" x="51.5379" y="3.69008" width="18.4196" height="20.9531" filterUnits="userSpaceOnUse" color-interpolation-filters="sRGB">
<feFlood flood-opacity="0" result="BackgroundImageFix"/>
<feColorMatrix in="SourceAlpha" type="matrix" values="0 0 0 0 0 0 0 0 0 0 0 0 0 0 0 0 0 0 127 0" result="hardAlpha"/>
<feOffset dx="1.61518"/>
<feGaussianBlur stdDeviation="1.45367"/>
<feComposite in2="hardAlpha" operator="out"/>
<feColorMatrix type="matrix" values="0 0 0 0 0.619608 0 0 0 0 0.796078 0 0 0 0 0.588235 0 0 0 1 0"/>
<feBlend mode="normal" in2="BackgroundImageFix" result="effect1_dropShadow_22_46"/>
<feBlend mode="normal" in="SourceGraphic" in2="effect1_dropShadow_22_46" result="shape"/>
<feColorMatrix in="SourceAlpha" type="matrix" values="0 0 0 0 0 0 0 0 0 0 0 0 0 0 0 0 0 0 127 0" result="hardAlpha"/>
<feOffset/>
<feGaussianBlur stdDeviation="1.21139"/>
<feComposite in2="hardAlpha" operator="arithmetic" k2="-1" k3="1"/>
<feColorMatrix type="matrix" values="0 0 0 0 0 0 0 0 0 0.0588235 0 0 0 0 0.0980392 0 0 0 1 0"/>
<feBlend mode="normal" in2="shape" result="effect2_innerShadow_22_46"/>
</filter>
<filter id="filter2_di_22_46" x="225.439" y="69.9716" width="18.736" height="20.1396" filterUnits="userSpaceOnUse" color-interpolation-filters="sRGB">
<feFlood flood-opacity="0" result="BackgroundImageFix"/>
<feColorMatrix in="SourceAlpha" type="matrix" values="0 0 0 0 0 0 0 0 0 0 0 0 0 0 0 0 0 0 127 0" result="hardAlpha"/>
<feOffset dx="1.61518"/>
<feGaussianBlur stdDeviation="1.45367"/>
<feComposite in2="hardAlpha" operator="out"/>
<feColorMatrix type="matrix" values="0 0 0 0 0.619608 0 0 0 0 0.796078 0 0 0 0 0.588235 0 0 0 1 0"/>
<feBlend mode="normal" in2="BackgroundImageFix" result="effect1_dropShadow_22_46"/>
<feBlend mode="normal" in="SourceGraphic" in2="effect1_dropShadow_22_46" result="shape"/>
<feColorMatrix in="SourceAlpha" type="matrix" values="0 0 0 0 0 0 0 0 0 0 0 0 0 0 0 0 0 0 127 0" result="hardAlpha"/>
<feOffset/>
<feGaussianBlur stdDeviation="1.21139"/>
<feComposite in2="hardAlpha" operator="arithmetic" k2="-1" k3="1"/>
<feColorMatrix type="matrix" values="0 0 0 0 0 0 0 0 0 0.0588235 0 0 0 0 0.0980392 0 0 0 1 0"/>
<feBlend mode="normal" in2="shape" result="effect2_innerShadow_22_46"/>
</filter>
<filter id="filter3_di_22_46" x="252.678" y="1.07509" width="16.8493" height="17.8205" filterUnits="userSpaceOnUse" color-interpolation-filters="sRGB">
<feFlood flood-opacity="0" result="BackgroundImageFix"/>
<feColorMatrix in="SourceAlpha" type="matrix" values="0 0 0 0 0 0 0 0 0 0 0 0 0 0 0 0 0 0 127 0" result="hardAlpha"/>
<feOffset dx="1.61518"/>
<feGaussianBlur stdDeviation="1.45367"/>
<feComposite in2="hardAlpha" operator="out"/>
<feColorMatrix type="matrix" values="0 0 0 0 0.619608 0 0 0 0 0.796078 0 0 0 0 0.588235 0 0 0 1 0"/>
<feBlend mode="normal" in2="BackgroundImageFix" result="effect1_dropShadow_22_46"/>
<feBlend mode="normal" in="SourceGraphic" in2="effect1_dropShadow_22_46" result="shape"/>
<feColorMatrix in="SourceAlpha" type="matrix" values="0 0 0 0 0 0 0 0 0 0 0 0 0 0 0 0 0 0 127 0" result="hardAlpha"/>
<feOffset/>
<feGaussianBlur stdDeviation="1.21139"/>
<feComposite in2="hardAlpha" operator="arithmetic" k2="-1" k3="1"/>
<feColorMatrix type="matrix" values="0 0 0 0 0 0 0 0 0 0.0588235 0 0 0 0 0.0980392 0 0 0 1 0"/>
<feBlend mode="normal" in2="shape" result="effect2_innerShadow_22_46"/>
</filter>
</defs>
</svg>
